<svg width="81" height="80" viewBox="0 0 81 80" fill="none" xmlns="http://www.w3.org/2000/svg">
<g clip-path="url(#clip0_303_781)">
<path d="M7.99609 73.7146L13.7427 75.1209L19.4891 73.7146V70.8965L13.7427 69.4902L7.99609 70.8965V73.7146Z" fill="#F9CF58"/>
<path d="M25.668 73.7146L31.4145 75.1209L37.1611 73.7146V70.8965L31.4145 69.4902L25.668 70.8965V73.7146Z" fill="#FFAC3E"/>
<path d="M43.3438 73.7146L49.0903 75.1209L54.8369 73.7146V70.8965L49.0903 69.4902L43.3438 70.8965V73.7146Z" fill="#82D361"/>
<path d="M61.0117 73.7146L66.7583 75.1209L72.5048 73.7146V70.8965L66.7583 69.4902L61.0117 70.8965V73.7146Z" fill="#6CC4FF"/>
<path d="M19.4891 70.8964H7.99609V59.5266C7.99609 58.6619 8.69703 57.9609 9.56172 57.9609H17.9237C18.7884 57.9609 19.4894 58.6619 19.4894 59.5266V70.8964H19.4891Z" fill="#FFE27A"/>
<path d="M37.1611 70.8965H25.668V50.9816C25.668 50.117 26.3689 49.416 27.2336 49.416H35.5955C36.4602 49.416 37.1611 50.117 37.1611 50.9816V70.8965Z" fill="#FFBA57"/>
<path d="M54.8369 70.8967H43.3438V42.4367C43.3438 41.572 44.0447 40.8711 44.9094 40.8711H53.2714C54.1361 40.8711 54.837 41.572 54.837 42.4367V70.8967H54.8369Z" fill="#98DB7C"/>
<path d="M72.5048 70.897H61.0117V33.8918C61.0117 33.0271 61.7127 32.3262 62.5773 32.3262H70.9394C71.8041 32.3262 72.505 33.0271 72.505 33.8918L72.5048 70.897Z" fill="#8BCAFF"/>
<path d="M66.1798 18.3765L64.8006 4.63821C64.7893 4.52579 64.7538 4.41713 64.6966 4.31972C64.6393 4.22231 64.5617 4.13845 64.4689 4.0739C64.3762 4.00935 64.2706 3.96564 64.1593 3.94578C64.0481 3.92592 63.9339 3.93037 63.8245 3.95884L50.4531 7.44134C49.8059 7.60993 49.6545 8.45978 50.2036 8.84149L53.6966 11.2701C53.6966 11.2701 44.7383 28.7402 12.3711 38.729V39.6021C21.2519 39.6507 44.467 37.1109 59.0272 17.5454L61.4595 16.6676L64.9541 19.0973C65.5028 19.4788 66.2466 19.0415 66.1798 18.3765Z" fill="#FF4755"/>
<path d="M60.0593 15.6782C59.7109 15.4321 59.2317 15.5118 58.9771 15.854C44.417 35.4194 25.7374 37.8833 12.9027 38.7749C12.728 38.7879 12.5523 38.7717 12.3829 38.7269L12.3715 38.7305C10.716 39.2527 11.1798 41.7129 12.9115 41.5924C25.8812 40.6901 47.2902 36.0583 61.4613 16.6687L60.0593 15.6782Z" fill="#FC2B3A"/>
<path d="M79.0763 76.0633H1.42475C1.11665 76.0583 0.82286 75.9323 0.606752 75.7127C0.390645 75.493 0.269531 75.1972 0.269531 74.8891C0.269531 74.5809 0.390645 74.2851 0.606752 74.0655C0.82286 73.8458 1.11665 73.7199 1.42475 73.7148H79.0765C79.3846 73.7199 79.6784 73.8458 79.8944 74.0655C80.1105 74.2852 80.2316 74.581 80.2316 74.8891C80.2316 75.1973 80.1105 75.4931 79.8943 75.7127C79.6782 75.9324 79.3844 76.0583 79.0763 76.0633Z" fill="#407093"/>
</g>
<defs>
<clipPath id="clip0_303_781">
<rect width="80" height="80" fill="white" transform="translate(0.25)"/>
</clipPath>
</defs>
</svg>
