<svg width="81" height="79" viewBox="0 0 81 79" fill="none" xmlns="http://www.w3.org/2000/svg">
<path d="M49.8906 44.0919H4.37859C2.37469 44.0919 0.75 42.4669 0.75 40.4631V3.62859C0.75 1.62469 2.37469 0 4.37859 0H49.8906C51.8944 0 53.5192 1.62469 53.5192 3.62859V40.4633C53.5192 42.467 51.8944 44.0919 49.8906 44.0919Z" fill="#D9E0ED"/>
<path d="M49.8906 0H46.2591V10.2527C46.2591 26.0438 33.4575 38.8452 17.6666 38.8452H0.75V40.4633C0.75 42.467 2.37469 44.0917 4.37859 44.0917H49.89C51.8944 44.0917 53.5192 42.467 53.5192 40.4633V3.62859C53.5192 1.62469 51.8944 0 49.8906 0Z" fill="#CFD6E5"/>
<path d="M47.7694 34.6929H6.50315C6.34281 34.6961 6.18346 34.6672 6.03441 34.608C5.88536 34.5489 5.7496 34.4606 5.6351 34.3483C5.52059 34.236 5.42962 34.102 5.36752 33.9542C5.30542 33.8063 5.27344 33.6476 5.27344 33.4872C5.27344 33.3268 5.30542 33.1681 5.36752 33.0202C5.42962 32.8724 5.52059 32.7384 5.6351 32.6261C5.7496 32.5138 5.88536 32.4255 6.03441 32.3663C6.18346 32.3072 6.34281 32.2783 6.50315 32.2815H47.7696C48.4361 32.2815 48.9756 32.821 48.9756 33.4868C48.9756 34.1526 48.4355 34.693 47.7696 34.693L47.7694 34.6929ZM27.7456 39.3602H6.50299C5.83643 39.3602 5.29674 38.8207 5.29674 38.1549C5.29674 37.4891 5.83706 36.9487 6.50299 36.9487H27.7456C27.9056 36.9461 28.0645 36.9754 28.2131 37.0348C28.3616 37.0943 28.4969 37.1827 28.6109 37.2949C28.7249 37.4071 28.8155 37.5409 28.8773 37.6885C28.9392 37.8361 28.971 37.9945 28.971 38.1545C28.971 38.3145 28.9392 38.4729 28.8773 38.6204C28.8155 38.768 28.7249 38.9018 28.6109 39.014C28.4969 39.1262 28.3616 39.2146 28.2131 39.2741C28.0645 39.3335 27.9056 39.3628 27.7456 39.3602Z" fill="#86A4B7"/>
<path d="M8.03827 22.1158C7.87301 22.1161 7.70946 22.0823 7.55783 22.0166C7.40621 21.9509 7.26976 21.8546 7.15702 21.7337C6.93861 21.5001 6.82196 21.1892 6.83271 20.8695C6.84347 20.5498 6.98075 20.2475 7.21437 20.029L15.3083 12.4606C15.4925 12.2884 15.726 12.1782 15.9761 12.1456C16.2261 12.113 16.4801 12.1595 16.7023 12.2787L24.6205 16.5317L30.852 8.8992C30.9604 8.76659 31.0958 8.65855 31.2491 8.58226C31.4024 8.50597 31.5703 8.46317 31.7414 8.4567C31.9127 8.45043 32.0834 8.48072 32.2421 8.54554C32.4007 8.61036 32.5438 8.70823 32.6617 8.83264L38.4076 14.8983L45.9028 5.60514C46.1035 5.35623 46.3949 5.19724 46.7129 5.16313C47.0308 5.12903 47.3493 5.2226 47.5983 5.42326C47.8471 5.6241 48.006 5.91556 48.04 6.23354C48.074 6.55153 47.9803 6.86999 47.7795 7.11889L39.4191 17.4856C39.3112 17.6195 39.1759 17.7289 39.0223 17.8062C38.8687 17.8835 38.7004 17.9271 38.5285 17.934C38.3567 17.9409 38.1854 17.9109 38.0261 17.8461C37.8668 17.7813 37.7232 17.6831 37.605 17.5583L31.8531 11.4864L25.86 18.8265C25.6831 19.0435 25.4361 19.1921 25.1616 19.2467C24.887 19.3014 24.602 19.2588 24.3555 19.1262L16.3239 14.813L8.86109 21.7905C8.63827 21.9996 8.3439 22.116 8.03827 22.1158Z" fill="#7885ED"/>
<path d="M10.2469 20.9088C10.2469 22.1289 9.2575 23.1183 8.0375 23.1183C6.81734 23.1183 5.82812 22.1289 5.82812 20.9089C5.82812 19.6889 6.81734 18.7 8.0375 18.7C9.2575 18.7 10.2469 19.6888 10.2469 20.9088ZM18.3408 13.3405C18.3408 14.5605 17.352 15.5494 16.1319 15.5494C14.9117 15.5494 13.9225 14.5605 13.9225 13.3405C13.9225 12.1205 14.9119 11.1311 16.1319 11.1311C17.3519 11.1311 18.3408 12.1203 18.3408 13.3405ZM27.1348 18.0633C27.1348 19.2836 26.1459 20.2728 24.9259 20.2728C23.7059 20.2728 22.7164 19.2834 22.7164 18.0634C22.7164 16.8431 23.7058 15.8545 24.9258 15.8545C26.1458 15.8545 27.1347 16.8433 27.1347 18.0633H27.1348ZM33.9952 9.66125C33.9952 10.8814 33.0058 11.8702 31.7856 11.8702C30.5655 11.8702 29.5767 10.8814 29.5767 9.66125C29.5767 8.44109 30.5655 7.45188 31.7856 7.45188C33.0058 7.45188 33.995 8.44109 33.995 9.66125H33.9952ZM40.6895 16.728C40.6895 17.948 39.7 18.9373 38.48 18.9373C37.26 18.9373 36.2711 17.948 36.2711 16.728C36.2711 15.508 37.2598 14.5191 38.48 14.5191C39.7002 14.5191 40.6894 15.5078 40.6894 16.728H40.6895ZM49.038 6.40875C49.038 7.62875 48.0489 8.6175 46.8289 8.6175C45.6089 8.6175 44.6195 7.62875 44.6195 6.40875C44.6195 5.18875 45.6089 4.19922 46.8289 4.19922C48.0489 4.19922 49.0378 5.18859 49.0378 6.40859L49.038 6.40875Z" fill="#FFA91E"/>
<path d="M25.9031 72.4898V77.0608C25.9031 78.0378 25.1091 78.8314 24.1295 78.8314H2.52375C1.54406 78.8314 0.75 78.0377 0.75 77.0608V72.4898C0.75 68.4834 3.99891 65.2383 8.00594 65.2383H18.648C22.6542 65.2383 25.9031 68.4834 25.9031 72.4898Z" fill="#7885ED"/>
<path d="M8.90578 74.9754V78.831H6.03516V74.9754C6.03516 74.182 6.67859 73.541 7.47016 73.541C8.26234 73.541 8.90578 74.182 8.90578 74.9754Z" fill="#676FCE"/>
<path d="M18.0142 65.2383V65.8328C18.0142 67.3361 16.7934 68.5562 15.2895 68.5562H11.3614C9.8575 68.5562 8.63672 67.3361 8.63672 65.8328V65.2383H18.0142Z" fill="#5656B2"/>
<path d="M20.5573 74.9754V78.831H17.6875V74.9754C17.6875 74.182 18.3303 73.541 19.1225 73.541C19.311 73.5407 19.4976 73.5777 19.6718 73.6497C19.846 73.7216 20.0042 73.8273 20.1375 73.9605C20.2708 74.0938 20.3765 74.252 20.4485 74.4261C20.5206 74.6003 20.5576 74.7869 20.5573 74.9754Z" fill="#676FCE"/>
<path d="M14.6717 67.1008H11.9819C10.9522 67.1008 10.1172 66.2656 10.1172 65.2361V60.7852H16.5369V65.2359C16.5369 66.2656 15.7019 67.1005 14.6717 67.1005V67.1008Z" fill="#FCC1B9"/>
<path d="M20.0677 48.9545V55.3723C20.0677 59.0918 17.0502 62.1074 13.3287 62.1074C9.60687 62.1074 6.58984 59.0918 6.58984 55.3723V48.9545C6.58984 46.2676 8.76891 44.0918 11.4555 44.0918H15.2019C17.89 44.0918 20.0677 46.2677 20.0677 48.9545Z" fill="#FCC1B9"/>
<path d="M20.0677 48.9546V50.3395C20.0677 54.0582 17.0502 57.074 13.3287 57.074C9.60687 57.074 6.58984 54.0584 6.58984 50.3395V48.9546C6.58984 46.2677 8.76891 44.0918 11.4555 44.0918H15.2019C17.89 44.0918 20.0677 46.2677 20.0677 48.9546Z" fill="#354968"/>
<path d="M51.0556 72.4898V77.0608C51.0556 78.0378 50.2617 78.8314 49.2822 78.8314H27.6761C26.6964 78.8314 25.9023 78.0378 25.9023 77.0608V72.4898C25.9023 68.4834 29.1512 65.2383 33.1577 65.2383H43.8003C47.8067 65.2383 51.0556 68.4834 51.0556 72.4898Z" fill="#48BBED"/>
<path d="M34.0575 74.9756V78.8313H31.1876V74.9756C31.1876 74.1822 31.8303 73.5413 32.6225 73.5413C33.4147 73.5413 34.0575 74.1822 34.0575 74.9756Z" fill="#009BE6"/>
<path d="M43.1703 65.2383V65.8328C43.1703 67.3361 41.9497 68.5562 40.4458 68.5562H36.5177C35.0136 68.5562 33.793 67.3361 33.793 65.8328V65.2383H43.1703Z" fill="#0082BD"/>
<path d="M45.7097 74.9754V78.831H42.8398V74.9754C42.8398 74.182 43.4831 73.541 44.2747 73.541C44.4632 73.5407 44.6498 73.5776 44.824 73.6496C44.9982 73.7216 45.1565 73.8272 45.2898 73.9605C45.4231 74.0937 45.5288 74.2519 45.6009 74.4261C45.6729 74.6003 45.7099 74.7869 45.7097 74.9754Z" fill="#009BE6"/>
<path d="M39.8239 67.1008H37.1341C36.1044 67.1008 35.2695 66.2656 35.2695 65.2361V60.7852H41.6892V65.2359C41.6892 66.2656 40.8542 67.1005 39.8239 67.1005V67.1008Z" fill="#FCC1B9"/>
<path d="M45.22 48.9551V55.3723C45.22 59.0918 42.2023 62.1074 38.4809 62.1074C34.7591 62.1074 31.7422 59.0918 31.7422 55.3723V48.9551C31.7422 46.2682 33.9211 44.0918 36.6078 44.0918H40.3542C43.0422 44.0918 45.22 46.2684 45.22 48.9551Z" fill="#FCC1B9"/>
<path d="M45.22 48.9552V50.3395C45.22 54.059 42.2023 57.0746 38.4809 57.0746C34.7591 57.0746 31.7422 54.059 31.7422 50.3395V48.9551C31.7422 46.2684 33.9211 44.0918 36.6078 44.0918H40.3542C43.0422 44.0918 45.2198 46.2684 45.2198 48.9551L45.22 48.9552Z" fill="#354968"/>
<path d="M38.2228 19.7195V22.8011C38.2228 24.4581 39.5656 25.8011 41.2216 25.8011H60.4175C60.4786 25.8009 60.5392 25.8129 60.5956 25.8362C60.6521 25.8595 60.7035 25.8938 60.7467 25.937C60.7899 25.9802 60.8242 26.0315 60.8475 26.088C60.8708 26.1444 60.8828 26.205 60.8827 26.2661V44.0614H75.7898C78.5284 44.0614 80.7502 41.8398 80.7502 39.1011V24.8281C80.7502 22.0058 78.4619 19.7188 75.6392 19.7188H38.2227L38.2228 19.7195Z" fill="#48BBED"/>
<path d="M73.1641 28.7986V44.0611H75.675V28.7986C75.675 28.1058 75.1125 27.543 74.4195 27.543C73.7269 27.543 73.1641 28.1058 73.1641 28.7986Z" fill="#009BE6"/>
<path d="M71.7325 15.5684V19.6748C71.7325 21.3257 70.3934 22.6649 68.7406 22.6649C67.0891 22.6649 65.75 21.3259 65.75 19.6748V15.5684H71.7325Z" fill="#FCC1B9"/>
<path d="M71.7325 15.5684V17.6905C70.833 18.1633 69.8318 18.4095 68.8156 18.4077C67.7422 18.4096 66.6864 18.1348 65.75 17.6099V15.5684H71.7325Z" fill="#F2AA99"/>
<path d="M68.815 16.7987C72.283 16.7987 75.095 13.9869 75.095 10.5188V3.27203C75.095 1.46484 73.6302 0 71.8228 0H65.8072C64 0 62.5352 1.46484 62.5352 3.27203V10.5189C62.5352 13.9873 65.3464 16.7987 68.815 16.7987Z" fill="#FCC1B9"/>
<path d="M62.5352 3.27266V9.13875C62.5352 7.34922 63.9713 5.89594 65.7511 5.86734C65.7694 5.86547 65.7895 5.86547 65.8078 5.86547H71.8247C73.6308 5.86547 75.0956 7.33031 75.0956 9.13891V3.2725C75.0956 1.46484 73.6308 0 71.8247 0H65.8078C64.0019 0 62.5352 1.46484 62.5352 3.27266Z" fill="#354968"/>
<path d="M65.75 4.56992V5.8668C65.7683 5.86523 65.7884 5.86523 65.8067 5.86523H68.2609V4.56992C68.261 4.40502 68.2286 4.24172 68.1656 4.08935C68.1025 3.93699 68.0101 3.79854 67.8935 3.68194C67.7768 3.56534 67.6384 3.47287 67.486 3.40981C67.3337 3.34675 67.1704 3.31435 67.0055 3.31445C66.8406 3.31435 66.6773 3.34675 66.5249 3.40981C66.3725 3.47287 66.2341 3.56534 66.1175 3.68194C66.0009 3.79854 65.9084 3.93699 65.8454 4.08935C65.7823 4.24172 65.7499 4.40502 65.75 4.56992Z" fill="#2A3A51"/>
<path d="M60.8828 44.0586H74.4172V78.2567H60.8828V44.0586Z" fill="#354968"/>
<path d="M71.8722 48.2567V54.6752C71.8594 57.2489 71.1441 58.8725 70.4587 59.8986C69.7275 60.9928 69.0853 61.3231 68.7705 62.5114C68.3108 64.2461 69.2514 65.1542 68.6502 66.1289C68.0234 67.1434 66.2631 67.3564 65.1322 67.1008C62.8519 66.5855 61.1038 63.7108 60.8828 59.9003V44.0586H69.462C70.9042 44.9028 71.8722 46.4653 71.8722 48.2567Z" fill="#2A3A51"/>
<path d="M76.2084 72.4898V77.0608C76.2084 78.0378 75.4144 78.8314 74.4348 78.8314H52.8284C51.8487 78.8314 51.0547 78.0378 51.0547 77.0608V72.4898C51.0547 68.4834 54.3036 65.2383 58.3105 65.2383H68.9527C72.9595 65.2383 76.2084 68.4834 76.2084 72.4898Z" fill="#7885ED"/>
<path d="M59.2102 74.9754V78.831H56.3398V74.9754C56.3398 74.182 56.9831 73.541 57.7753 73.541C58.5669 73.541 59.2102 74.182 59.2102 74.9754Z" fill="#676FCE"/>
<path d="M68.3227 65.2383V65.8328C68.3227 67.3361 67.102 68.5562 65.5981 68.5562H61.67C60.1661 68.5562 58.9453 67.3361 58.9453 65.8328V65.2383H68.3227Z" fill="#5656B2"/>
<path d="M70.8659 74.9754V78.831H67.9961V74.9754C67.9961 74.182 68.6387 73.541 69.4311 73.541C69.6196 73.5407 69.8062 73.5777 69.9804 73.6497C70.1546 73.7216 70.3128 73.8273 70.4461 73.9605C70.5794 74.0938 70.6851 74.252 70.7571 74.4261C70.8292 74.6003 70.8661 74.7869 70.8659 74.9754Z" fill="#676FCE"/>
<path d="M64.9764 67.1008H62.2872C61.2569 67.1008 60.4219 66.2656 60.4219 65.2361V60.7852H66.8416V65.2359C66.8416 66.2656 66.0066 67.1005 64.9764 67.1005V67.1008Z" fill="#FCC1B9"/>
<path d="M70.3723 48.9542V55.372C70.3723 59.0916 67.3548 62.1072 63.6334 62.1072C59.912 62.1072 56.8945 59.0916 56.8945 55.372V48.9542C56.8945 46.2673 59.0742 44.9062 61.7602 44.9062H65.5066C68.1952 44.9062 70.3723 46.2673 70.3723 48.9542Z" fill="#FCC1B9"/>
<path d="M70.3722 48.9546V50.3395C70.3722 54.0582 67.3547 57.074 63.6333 57.074C59.9119 57.074 56.8944 54.0584 56.8944 50.3395V48.9546C56.8944 46.2677 59.0741 44.0918 61.76 44.0918H65.5064C68.195 44.0918 70.3722 46.2677 70.3722 48.9546Z" fill="#354968"/>
</svg>
