<svg width="81" height="80" viewBox="0 0 81 80" fill="none" xmlns="http://www.w3.org/2000/svg">
<path d="M40.7539 80C62.8453 80 80.7539 62.0914 80.7539 40C80.7539 17.9086 62.8453 0 40.7539 0C18.6625 0 0.753906 17.9086 0.753906 40C0.753906 62.0914 18.6625 80 40.7539 80Z" fill="#039BE5"/>
<path d="M19.0562 39.134L57.6228 24.264C59.4128 23.6174 60.9762 24.7007 60.3962 27.4074L60.3995 27.404L53.8328 58.3407C53.3462 60.534 52.0428 61.0674 50.2195 60.034L40.2195 52.664L35.3962 57.3107C34.8628 57.844 34.4128 58.294 33.3795 58.294L34.0895 48.1174L52.6228 31.374C53.4295 30.664 52.4428 30.264 51.3795 30.9707L28.4762 45.3907L18.6028 42.3107C16.4595 41.6307 16.4128 40.1674 19.0562 39.134Z" fill="white"/>
</svg>
