<svg width="32" height="52" viewBox="0 0 32 52" fill="none" xmlns="http://www.w3.org/2000/svg">
<path d="M28 26C28 26.2652 27.8946 26.5196 27.7071 26.7071C27.5196 26.8946 27.2652 27 27 27H5C4.73478 27 4.48043 26.8946 4.29289 26.7071C4.10536 26.5196 4 26.2652 4 26C4 25.7348 4.10536 25.4804 4.29289 25.2929C4.48043 25.1054 4.73478 25 5 25H27C27.2652 25 27.5196 25.1054 27.7071 25.2929C27.8946 25.4804 28 25.7348 28 26ZM5 19H27C27.2652 19 27.5196 18.8946 27.7071 18.7071C27.8946 18.5196 28 18.2652 28 18C28 17.7348 27.8946 17.4804 27.7071 17.2929C27.5196 17.1054 27.2652 17 27 17H5C4.73478 17 4.48043 17.1054 4.29289 17.2929C4.10536 17.4804 4 17.7348 4 18C4 18.2652 4.10536 18.5196 4.29289 18.7071C4.48043 18.8946 4.73478 19 5 19ZM27 33H5C4.73478 33 4.48043 33.1054 4.29289 33.2929C4.10536 33.4804 4 33.7348 4 34C4 34.2652 4.10536 34.5196 4.29289 34.7071C4.48043 34.8946 4.73478 35 5 35H27C27.2652 35 27.5196 34.8946 27.7071 34.7071C27.8946 34.5196 28 34.2652 28 34C28 33.7348 27.8946 33.4804 27.7071 33.2929C27.5196 33.1054 27.2652 33 27 33Z" fill="white"/>
</svg>
