<svg width="81" height="80" viewBox="0 0 81 80" fill="none" xmlns="http://www.w3.org/2000/svg">
<path d="M18.1346 10.4866L30.506 22.858H9.07746C9.51473 20.2313 10.5619 17.7438 12.1349 15.5952C13.7078 13.4467 15.7628 11.6969 18.1346 10.4866ZM34.7632 8.57227H25.9632C25.4203 8.57227 24.8775 8.60084 24.3346 8.62941L38.5632 22.858H49.0489L34.7632 8.57227ZM54.5346 8.57227H42.8775L57.1632 22.858H71.4203C70.751 18.8639 68.687 15.2366 65.5952 12.6209C62.5035 10.0052 58.5844 8.57066 54.5346 8.57227ZM35.9117 56.0751L50.1975 48.218C50.6454 47.9713 51.019 47.609 51.2791 47.1687C51.5393 46.7285 51.6766 46.2265 51.6766 45.7151C51.6766 45.2038 51.5393 44.7017 51.2791 44.2615C51.019 43.8213 50.6454 43.4589 50.1975 43.2123L35.9117 35.3551C35.4767 35.1158 34.9869 34.994 34.4904 35.0017C33.994 35.0093 33.5082 35.1462 33.0808 35.3989C32.6533 35.6515 32.2992 36.0112 32.0531 36.4424C31.807 36.8736 31.6775 37.3615 31.6775 37.858V53.5723C31.6775 54.0688 31.807 54.5567 32.0531 54.9879C32.2992 55.4191 32.6533 55.7787 33.0808 56.0314C33.5082 56.284 33.994 56.4209 34.4904 56.4286C34.9869 56.4363 35.4767 56.3144 35.9117 56.0751ZM71.6775 28.5723V54.2866C71.6737 58.832 69.8663 63.1901 66.6523 66.4042C63.4382 69.6183 59.08 71.4256 54.5346 71.4294H25.9632C21.4178 71.4256 17.0596 69.6183 13.8455 66.4042C10.6314 63.1901 8.8241 58.832 8.82031 54.2866V28.5723H71.6775Z" fill="#CF2525"/>
</svg>
