<svg width="176" height="16" viewBox="0 0 176 16" fill="none" xmlns="http://www.w3.org/2000/svg">
<g clip-path="url(#clip0_303_1041)">
<path d="M15 8C15 3.58172 11.6421 0 7.5 0C3.35786 0 0 3.58172 0 8C0 11.993 2.74263 15.3027 6.32812 15.9028V10.3125H4.42383V8H6.32812V6.2375C6.32812 4.2325 7.44785 3.125 9.16099 3.125C9.9813 3.125 10.8398 3.28125 10.8398 3.28125V5.25H9.89414C8.9625 5.25 8.67188 5.86672 8.67188 6.5V8H10.752L10.4194 10.3125H8.67188V15.9028C12.2574 15.3027 15 11.993 15 8Z" fill="#14A87D"/>
</g>
<path d="M44.7188 14.5005C50.3778 14.5005 53.4739 9.49829 53.4739 5.16173C53.4739 5.0211 53.471 4.87735 53.4651 4.73673C54.0674 4.27213 54.5872 3.69666 55 3.03735C54.4391 3.30356 53.8435 3.47741 53.2337 3.55298C53.8758 3.14243 54.3566 2.49747 54.5869 1.73767C53.9828 2.11953 53.3222 2.3889 52.6334 2.53423C52.1693 2.0082 51.5556 1.6599 50.8873 1.54319C50.219 1.42648 49.5332 1.54786 48.9361 1.88855C48.3389 2.22925 47.8636 2.77029 47.5837 3.42803C47.3037 4.08577 47.2346 4.82357 47.3872 5.52735C46.1641 5.46188 44.9675 5.12296 43.875 4.53255C42.7825 3.94215 41.8186 3.11345 41.0456 2.10017C40.6527 2.82265 40.5325 3.67759 40.7094 4.49122C40.8863 5.30485 41.3469 6.01612 41.9978 6.48048C41.5091 6.46393 41.0312 6.32361 40.6035 6.0711V6.11173C40.6031 6.86992 40.8488 7.60488 41.2989 8.19167C41.7491 8.77846 42.3758 9.18086 43.0727 9.33048C42.62 9.46257 42.145 9.48182 41.6843 9.38673C41.8809 10.0388 42.2635 10.6091 42.7786 11.018C43.2937 11.427 43.9157 11.6542 44.5577 11.668C43.4678 12.5812 42.1214 13.0766 40.7354 13.0742C40.4896 13.0738 40.244 13.0578 40 13.0261C41.408 13.9897 43.046 14.5014 44.7188 14.5005Z" fill="white"/>
<g clip-path="url(#clip1_303_1041)">
<path d="M87.5 1.44062C89.5039 1.44062 89.7412 1.45 90.5293 1.4875C91.2617 1.52187 91.6572 1.65313 91.9209 1.7625C92.2695 1.90625 92.5215 2.08125 92.7822 2.35938C93.0459 2.64062 93.207 2.90625 93.3418 3.27813C93.4443 3.55938 93.5674 3.98438 93.5996 4.7625C93.6348 5.60625 93.6436 5.85938 93.6436 7.99375C93.6436 10.1313 93.6348 10.3844 93.5996 11.225C93.5674 12.0063 93.4443 12.4281 93.3418 12.7094C93.207 13.0813 93.043 13.35 92.7822 13.6281C92.5186 13.9094 92.2695 14.0813 91.9209 14.225C91.6572 14.3344 91.2588 14.4656 90.5293 14.5C89.7383 14.5375 89.501 14.5469 87.5 14.5469C85.4961 14.5469 85.2588 14.5375 84.4707 14.5C83.7383 14.4656 83.3428 14.3344 83.0791 14.225C82.7305 14.0813 82.4785 13.9063 82.2178 13.6281C81.9541 13.3469 81.793 13.0813 81.6582 12.7094C81.5557 12.4281 81.4326 12.0031 81.4004 11.225C81.3652 10.3813 81.3564 10.1281 81.3564 7.99375C81.3564 5.85625 81.3652 5.60313 81.4004 4.7625C81.4326 3.98125 81.5557 3.55938 81.6582 3.27813C81.793 2.90625 81.957 2.6375 82.2178 2.35938C82.4814 2.07812 82.7305 1.90625 83.0791 1.7625C83.3428 1.65313 83.7412 1.52187 84.4707 1.4875C85.2588 1.45 85.4961 1.44062 87.5 1.44062ZM87.5 0C85.4639 0 85.209 0.009375 84.4092 0.046875C83.6123 0.084375 83.0645 0.221875 82.5898 0.41875C82.0947 0.625 81.6758 0.896875 81.2598 1.34375C80.8408 1.7875 80.5859 2.23438 80.3926 2.75938C80.208 3.26875 80.0791 3.85 80.0439 4.7C80.0088 5.55625 80 5.82812 80 8C80 10.1719 80.0088 10.4438 80.0439 11.2969C80.0791 12.1469 80.208 12.7313 80.3926 13.2375C80.5859 13.7656 80.8408 14.2125 81.2598 14.6562C81.6758 15.1 82.0947 15.375 82.5869 15.5781C83.0645 15.775 83.6094 15.9125 84.4063 15.95C85.2061 15.9875 85.4609 15.9969 87.4971 15.9969C89.5332 15.9969 89.7881 15.9875 90.5879 15.95C91.3848 15.9125 91.9326 15.775 92.4072 15.5781C92.8994 15.375 93.3184 15.1 93.7344 14.6562C94.1504 14.2125 94.4082 13.7656 94.5986 13.2406C94.7832 12.7313 94.9121 12.15 94.9473 11.3C94.9824 10.4469 94.9912 10.175 94.9912 8.00313C94.9912 5.83125 94.9824 5.55938 94.9473 4.70625C94.9121 3.85625 94.7832 3.27188 94.5986 2.76562C94.4141 2.23438 94.1592 1.7875 93.7402 1.34375C93.3242 0.9 92.9053 0.625 92.4131 0.421875C91.9355 0.225 91.3906 0.0875 90.5938 0.05C89.791 0.009375 89.5361 0 87.5 0Z" fill="white"/>
<path d="M87.501 3.89062C85.374 3.89062 83.6484 5.73125 83.6484 8C83.6484 10.2688 85.374 12.1094 87.501 12.1094C89.6279 12.1094 91.3535 10.2688 91.3535 8C91.3535 5.73125 89.6279 3.89062 87.501 3.89062ZM87.501 10.6656C86.1211 10.6656 85.002 9.47188 85.002 8C85.002 6.52813 86.1211 5.33437 87.501 5.33437C88.8809 5.33437 90 6.52813 90 8C90 9.47188 88.8809 10.6656 87.501 10.6656Z" fill="white"/>
<path d="M92.4043 3.72793C92.4043 4.25918 92 4.68731 91.5049 4.68731C91.0068 4.68731 90.6055 4.25606 90.6055 3.72793C90.6055 3.19668 91.0098 2.76855 91.5049 2.76855C92 2.76855 92.4043 3.19981 92.4043 3.72793Z" fill="white"/>
</g>
<g clip-path="url(#clip2_303_1041)">
<path d="M133.89 0H121.107C120.495 0 120 0.515625 120 1.15313V14.8438C120 15.4813 120.495 16 121.107 16H133.89C134.502 16 135 15.4813 135 14.8469V1.15313C135 0.515625 134.502 0 133.89 0ZM124.45 13.6344H122.224V5.99687H124.45V13.6344ZM123.337 4.95625C122.622 4.95625 122.045 4.34062 122.045 3.58125C122.045 2.82188 122.622 2.20625 123.337 2.20625C124.049 2.20625 124.626 2.82188 124.626 3.58125C124.626 4.3375 124.049 4.95625 123.337 4.95625ZM132.782 13.6344H130.559V9.92188C130.559 9.0375 130.544 7.89687 129.401 7.89687C128.244 7.89687 128.068 8.8625 128.068 9.85938V13.6344H125.848V5.99687H127.98V7.04063H128.01C128.306 6.44063 129.032 5.80625 130.113 5.80625C132.366 5.80625 132.782 7.3875 132.782 9.44375V13.6344Z" fill="white"/>
</g>
<path d="M172.586 9.29628L170.124 8.06539C170.027 8.0171 169.919 7.99523 169.811 8.00198C169.703 8.00874 169.599 8.04387 169.509 8.10385L168.379 8.85777C167.86 8.57258 167.433 8.14566 167.148 7.62689L167.902 6.49678C167.962 6.40664 167.997 6.30228 168.004 6.19422C168.01 6.08616 167.988 5.97824 167.94 5.88133L166.709 3.41956C166.658 3.31653 166.579 3.22985 166.482 3.16934C166.384 3.10883 166.271 3.07692 166.156 3.07722C165.34 3.07722 164.557 3.40142 163.98 3.97851C163.403 4.55561 163.079 5.33831 163.079 6.15444C163.081 7.9493 163.795 9.67006 165.064 10.9392C166.333 12.2084 168.054 12.9223 169.849 12.9243C170.253 12.9243 170.653 12.8447 171.026 12.6901C171.4 12.5354 171.739 12.3088 172.025 12.023C172.311 11.7373 172.537 11.398 172.692 11.0247C172.846 10.6514 172.926 10.2512 172.926 9.8471C172.926 9.73276 172.894 9.62066 172.834 9.52337C172.774 9.42608 172.688 9.34744 172.586 9.29628ZM169.849 11.6934C168.38 11.6918 166.972 11.1077 165.934 10.0693C164.896 9.03089 164.311 7.62297 164.31 6.15444C164.31 5.72756 164.458 5.31384 164.728 4.98366C164.999 4.65349 165.375 4.42727 165.794 4.34349L166.677 6.11289L165.925 7.23146C165.869 7.31571 165.835 7.41252 165.825 7.5133C165.815 7.61408 165.83 7.71572 165.869 7.80921C166.31 8.85576 167.142 9.68833 168.189 10.1287C168.282 10.1693 168.385 10.1859 168.487 10.177C168.588 10.1682 168.686 10.1341 168.772 10.0779L169.896 9.32859L171.665 10.2117C171.581 10.6308 171.354 11.0076 171.022 11.2778C170.691 11.548 170.276 11.6949 169.849 11.6934ZM168.003 1.90538e-07C166.621 -0.00030123 165.263 0.357025 164.061 1.0372C162.859 1.71737 161.853 2.69722 161.142 3.88137C160.431 5.06552 160.038 6.41363 160.003 7.79449C159.967 9.17534 160.29 10.5419 160.939 11.7611L160.066 14.3806C159.993 14.5975 159.983 14.8302 160.035 15.0527C160.088 15.2752 160.201 15.4787 160.363 15.6404C160.525 15.802 160.728 15.9155 160.951 15.968C161.173 16.0205 161.406 16.01 161.623 15.9377L164.242 15.0645C165.315 15.6352 166.504 15.954 167.719 15.9966C168.933 16.0392 170.142 15.8046 171.252 15.3105C172.362 14.8164 173.346 14.0758 174.127 13.145C174.908 12.2142 175.467 11.1176 175.762 9.93844C176.056 8.75928 176.078 7.52857 175.826 6.33971C175.573 5.15086 175.054 4.03511 174.306 3.07715C173.558 2.1192 172.601 1.34422 171.509 0.811043C170.417 0.277864 169.218 0.000498686 168.003 1.90538e-07ZM168.003 14.7706C166.812 14.7715 165.643 14.458 164.613 13.8621C164.538 13.8184 164.454 13.7911 164.367 13.7823C164.28 13.7734 164.193 13.783 164.11 13.8106L161.233 14.7706L162.192 11.8934C162.22 11.8108 162.229 11.7232 162.221 11.6364C162.212 11.5497 162.185 11.4658 162.141 11.3903C161.395 10.1001 161.095 8.59973 161.289 7.12188C161.482 5.64403 162.158 4.27135 163.211 3.21676C164.265 2.16218 165.636 1.48466 167.114 1.2893C168.592 1.09393 170.092 1.39165 171.384 2.13627C172.675 2.88089 173.684 4.03078 174.255 5.40756C174.826 6.78434 174.926 8.31105 174.541 9.75085C174.156 11.1906 173.306 12.4631 172.124 13.3707C170.942 14.2783 169.493 14.7704 168.003 14.7706Z" fill="white"/>
<defs>
<clipPath id="clip0_303_1041">
<rect width="15" height="16" fill="white"/>
</clipPath>
<clipPath id="clip1_303_1041">
<rect width="15" height="16" fill="white" transform="translate(80)"/>
</clipPath>
<clipPath id="clip2_303_1041">
<rect width="15" height="16" fill="white" transform="translate(120)"/>
</clipPath>
</defs>
</svg>
